<svg xmlns="http://www.w3.org/2000/svg" xmlns:xlink="http://www.w3.org/1999/xlink" contentStyleType="text/css" data-diagram-type="CLASS" height="769px" preserveAspectRatio="none" style="width:580px;height:769px;background:#FFFFFF;" version="1.1" viewBox="0 0 580 769" width="580px" zoomAndPan="magnify"><?plantuml $version$?><defs/><g><!--cluster Presentacion--><g class="cluster" data-qualified-name="Presentacion" data-source-line="5" id="ent0001"><rect fill="#FFD9D9" height="197.34" rx="2.5" ry="2.5" style="stroke:#000000;stroke-width:1.5;" width="446" x="7" y="7"/><text fill="#000000" font-family="sans-serif" font-size="14" font-weight="700" lengthAdjust="spacing" textLength="91.7137" x="184.1432" y="23.9659">Presentacion</text></g><!--cluster Aplicacion--><g class="cluster" data-qualified-name="Aplicacion" data-source-line="15" id="ent0003"><rect fill="#C9F7F7" height="210" rx="2.5" ry="2.5" style="stroke:#000000;stroke-width:1.5;" width="214" x="123" y="228.34"/><text fill="#000000" font-family="sans-serif" font-size="14" font-weight="700" lengthAdjust="spacing" textLength="72.0437" x="193.9781" y="245.3059">Aplicacion</text></g><!--cluster Dominio--><g class="cluster" data-qualified-name="Dominio" data-source-line="21" id="ent0008"><rect fill="#FFF6C9" height="292.68" rx="2.5" ry="2.5" style="stroke:#000000;stroke-width:1.5;" width="528" x="38" y="462.34"/><text fill="#000000" font-family="sans-serif" font-size="14" font-weight="700" lengthAdjust="spacing" textLength="59.1778" x="272.4111" y="479.3059">Dominio</text></g><!--class DC--><g class="entity" data-qualified-name="Presentacion.DC" data-source-line="6" id="ent0002"><rect fill="#F1F1F1" height="143.3396" rx="2.5" ry="2.5" style="stroke:#181818;stroke-width:0.5;" width="413.2105" x="23.39" y="45"/><ellipse cx="155.9485" cy="61" fill="#ADD1B2" rx="11" ry="11" style="stroke:#181818;stroke-width:1;"/><path d="M158.9173,66.6406 Q158.3391,66.9375 157.6985,67.0781 Q157.0579,67.2344 156.3548,67.2344 Q153.8548,67.2344 152.5266,65.5938 Q151.2141,63.9375 151.2141,60.8125 Q151.2141,57.6875 152.5266,56.0313 Q153.8548,54.375 156.3548,54.375 Q157.0579,54.375 157.6985,54.5313 Q158.3548,54.6875 158.9173,54.9844 L158.9173,57.7031 Q158.2923,57.125 157.6985,56.8594 Q157.1048,56.5781 156.4798,56.5781 Q155.136,56.5781 154.4485,57.6563 Q153.761,58.7188 153.761,60.8125 Q153.761,62.9063 154.4485,63.9844 Q155.136,65.0469 156.4798,65.0469 Q157.1048,65.0469 157.6985,64.7813 Q158.2923,64.5 158.9173,63.9219 L158.9173,66.6406 Z " fill="#000000"/><text fill="#000000" font-family="sans-serif" font-size="14" lengthAdjust="spacing" textLength="139.5934" x="176.4485" y="66.432">DevolucionController</text><line style="stroke:#181818;stroke-width:0.5;" x1="24.39" x2="435.6005" y1="77" y2="77"/><line style="stroke:#181818;stroke-width:0.5;" x1="24.39" x2="435.6005" y1="85" y2="85"/><g data-visibility-modifier="PUBLIC_METHOD"><ellipse cx="34.39" cy="100.034" fill="#84BE84" rx="3" ry="3" style="stroke:#038048;stroke-width:1;"/></g><text fill="#000000" font-family="sans-serif" font-size="14" lengthAdjust="spacing" textLength="344.7906" x="43.39" y="103.9659">listarDevoluciones() : List&lt;DevolucionResponseDTO&gt;</text><g data-visibility-modifier="PUBLIC_METHOD"><ellipse cx="34.39" cy="119.1019" fill="#84BE84" rx="3" ry="3" style="stroke:#038048;stroke-width:1;"/></g><text fill="#000000" font-family="sans-serif" font-size="14" lengthAdjust="spacing" textLength="384.6626" x="43.39" y="123.0339">registrarIntentoFallido(request) : DevolucionResponseDTO</text><g data-visibility-modifier="PUBLIC_METHOD"><ellipse cx="34.39" cy="138.1698" fill="#84BE84" rx="3" ry="3" style="stroke:#038048;stroke-width:1;"/></g><text fill="#000000" font-family="sans-serif" font-size="14" lengthAdjust="spacing" textLength="387.2105" x="43.39" y="142.1018">recepsionarEnAlmacen(request) : DevolucionResponseDTO</text><g data-visibility-modifier="PUBLIC_METHOD"><ellipse cx="34.39" cy="157.2377" fill="#84BE84" rx="3" ry="3" style="stroke:#038048;stroke-width:1;"/></g><text fill="#000000" font-family="sans-serif" font-size="14" lengthAdjust="spacing" textLength="379.9026" x="43.39" y="161.1697">consultarPorTracking(tracking) : DevolucionResponseDTO</text><g data-visibility-modifier="PUBLIC_METHOD"><ellipse cx="34.39" cy="176.3056" fill="#84BE84" rx="3" ry="3" style="stroke:#038048;stroke-width:1;"/></g><text fill="#000000" font-family="sans-serif" font-size="14" lengthAdjust="spacing" textLength="364.6006" x="43.39" y="180.2376">registrarResolucion(request) : DevolucionResponseDTO</text></g><!--class IDS--><g class="entity" data-qualified-name="Aplicacion.IDS" data-source-line="16" id="ent0004"><rect fill="#F1F1F1" height="48" rx="2.5" ry="2.5" style="stroke:#181818;stroke-width:0.5;" width="148.0456" x="155.98" y="266.34"/><ellipse cx="170.98" cy="282.34" fill="#B4A7E5" rx="11" ry="11" style="stroke:#181818;stroke-width:1;"/><path d="M166.9019,278.1056 L166.9019,275.9494 L174.2925,275.9494 L174.2925,278.1056 L171.8238,278.1056 L171.8238,286.1838 L174.2925,286.1838 L174.2925,288.34 L166.9019,288.34 L166.9019,286.1838 L169.3706,286.1838 L169.3706,278.1056 L166.9019,278.1056 Z " fill="#000000"/><text fill="#000000" font-family="sans-serif" font-size="14" font-style="italic" lengthAdjust="spacing" textLength="116.0456" x="184.98" y="287.772">IDevolucionService</text><line style="stroke:#181818;stroke-width:0.5;" x1="156.98" x2="303.0256" y1="298.34" y2="298.34"/><line style="stroke:#181818;stroke-width:0.5;" x1="156.98" x2="303.0256" y1="306.34" y2="306.34"/></g><!--class DSI--><g class="entity" data-qualified-name="Aplicacion.DSI" data-source-line="17" id="ent0005"><rect fill="#F1F1F1" height="48" rx="2.5" ry="2.5" style="stroke:#181818;stroke-width:0.5;" width="182.1774" x="138.91" y="374.34"/><ellipse cx="153.91" cy="390.34" fill="#ADD1B2" rx="11" ry="11" style="stroke:#181818;stroke-width:1;"/><path d="M156.8788,395.9806 Q156.3006,396.2775 155.66,396.4181 Q155.0194,396.5744 154.3163,396.5744 Q151.8163,396.5744 150.4881,394.9338 Q149.1756,393.2775 149.1756,390.1525 Q149.1756,387.0275 150.4881,385.3713 Q151.8163,383.715 154.3163,383.715 Q155.0194,383.715 155.66,383.8713 Q156.3163,384.0275 156.8788,384.3244 L156.8788,387.0431 Q156.2538,386.465 155.66,386.1994 Q155.0663,385.9181 154.4413,385.9181 Q153.0975,385.9181 152.41,386.9963 Q151.7225,388.0588 151.7225,390.1525 Q151.7225,392.2463 152.41,393.3244 Q153.0975,394.3869 154.4413,394.3869 Q155.0663,394.3869 155.66,394.1213 Q156.2538,393.84 156.8788,393.2619 L156.8788,395.9806 Z " fill="#000000"/><text fill="#000000" font-family="sans-serif" font-size="14" lengthAdjust="spacing" textLength="150.1774" x="167.91" y="395.772">DevolucionServiceImpl</text><line style="stroke:#181818;stroke-width:0.5;" x1="139.91" x2="320.0874" y1="406.34" y2="406.34"/><line style="stroke:#181818;stroke-width:0.5;" x1="139.91" x2="320.0874" y1="414.34" y2="414.34"/></g><!--class DE--><g class="entity" data-qualified-name="Dominio.DE" data-source-line="22" id="ent0009"><rect fill="#F1F1F1" height="238.6792" rx="2.5" ry="2.5" style="stroke:#181818;stroke-width:0.5;" width="290.7809" x="53.61" y="500.34"/><ellipse cx="140.2277" cy="516.34" fill="#ADD1B2" rx="11" ry="11" style="stroke:#181818;stroke-width:1;"/><path d="M143.1964,521.9806 Q142.6183,522.2775 141.9777,522.4181 Q141.3371,522.5744 140.6339,522.5744 Q138.1339,522.5744 136.8058,520.9337 Q135.4933,519.2775 135.4933,516.1525 Q135.4933,513.0275 136.8058,511.3712 Q138.1339,509.715 140.6339,509.715 Q141.3371,509.715 141.9777,509.8712 Q142.6339,510.0275 143.1964,510.3244 L143.1964,513.0431 Q142.5714,512.465 141.9777,512.1994 Q141.3839,511.9181 140.7589,511.9181 Q139.4152,511.9181 138.7277,512.9962 Q138.0402,514.0587 138.0402,516.1525 Q138.0402,518.2462 138.7277,519.3244 Q139.4152,520.3869 140.7589,520.3869 Q141.3839,520.3869 141.9777,520.1212 Q142.5714,519.84 143.1964,519.2619 L143.1964,521.9806 Z " fill="#000000"/><text fill="#000000" font-family="sans-serif" font-size="14" lengthAdjust="spacing" textLength="109.0455" x="160.7277" y="521.772">DevolucionEnvio</text><line style="stroke:#181818;stroke-width:0.5;" x1="54.61" x2="343.3909" y1="532.34" y2="532.34"/><g data-visibility-modifier="PRIVATE_FIELD"><rect fill="none" height="6" style="stroke:#C82930;stroke-width:1;" width="6" x="61.61" y="544.374"/></g><text fill="#000000" font-family="sans-serif" font-size="14" lengthAdjust="spacing" textLength="59.0098" x="73.61" y="551.3059">id: String</text><g data-visibility-modifier="PRIVATE_FIELD"><rect fill="none" height="6" style="stroke:#C82930;stroke-width:1;" width="6" x="61.61" y="563.4419"/></g><text fill="#000000" font-family="sans-serif" font-size="14" lengthAdjust="spacing" textLength="155.8194" x="73.61" y="570.3739">numeroTracking: String</text><g data-visibility-modifier="PRIVATE_FIELD"><rect fill="none" height="6" style="stroke:#C82930;stroke-width:1;" width="6" x="61.61" y="582.5098"/></g><text fill="#000000" font-family="sans-serif" font-size="14" lengthAdjust="spacing" textLength="92.5957" x="73.61" y="589.4418">motivo: String</text><g data-visibility-modifier="PRIVATE_FIELD"><rect fill="none" height="6" style="stroke:#C82930;stroke-width:1;" width="6" x="61.61" y="601.5777"/></g><text fill="#000000" font-family="sans-serif" font-size="14" lengthAdjust="spacing" textLength="141.2735" x="73.61" y="608.5097">observaciones: String</text><g data-visibility-modifier="PRIVATE_FIELD"><rect fill="none" height="6" style="stroke:#C82930;stroke-width:1;" width="6" x="61.61" y="620.6456"/></g><text fill="#000000" font-family="sans-serif" font-size="14" lengthAdjust="spacing" textLength="91.3777" x="73.61" y="627.5776">estado: String</text><g data-visibility-modifier="PRIVATE_FIELD"><rect fill="none" height="6" style="stroke:#C82930;stroke-width:1;" width="6" x="61.61" y="639.7135"/></g><text fill="#000000" font-family="sans-serif" font-size="14" lengthAdjust="spacing" textLength="135.1135" x="73.61" y="646.6455">zonaAlmacen: String</text><g data-visibility-modifier="PRIVATE_FIELD"><rect fill="none" height="6" style="stroke:#C82930;stroke-width:1;" width="6" x="61.61" y="658.7815"/></g><text fill="#000000" font-family="sans-serif" font-size="14" lengthAdjust="spacing" textLength="168.9233" x="73.61" y="665.7134">decisionRemitente: String</text><g data-visibility-modifier="PRIVATE_FIELD"><rect fill="none" height="6" style="stroke:#C82930;stroke-width:1;" width="6" x="61.61" y="677.8494"/></g><text fill="#000000" font-family="sans-serif" font-size="14" lengthAdjust="spacing" textLength="232.2871" x="73.61" y="684.7814">fechaIntentoFallido: LocalDateTime</text><g data-visibility-modifier="PRIVATE_FIELD"><rect fill="none" height="6" style="stroke:#C82930;stroke-width:1;" width="6" x="61.61" y="696.9173"/></g><text fill="#000000" font-family="sans-serif" font-size="14" lengthAdjust="spacing" textLength="264.7809" x="73.61" y="703.8493">fechaRecepcionAlmacen: LocalDateTime</text><g data-visibility-modifier="PRIVATE_FIELD"><rect fill="none" height="6" style="stroke:#C82930;stroke-width:1;" width="6" x="61.61" y="715.9852"/></g><text fill="#000000" font-family="sans-serif" font-size="14" lengthAdjust="spacing" textLength="212.2251" x="73.61" y="722.9172">fechaResolucion: LocalDateTime</text><line style="stroke:#181818;stroke-width:0.5;" x1="54.61" x2="343.3909" y1="731.0192" y2="731.0192"/></g><!--class IDR--><g class="entity" data-qualified-name="Dominio.IDR" data-source-line="35" id="ent0010"><rect fill="#F1F1F1" height="48" rx="2.5" ry="2.5" style="stroke:#181818;stroke-width:0.5;" width="170.2355" x="379.88" y="595.68"/><ellipse cx="394.88" cy="611.68" fill="#B4A7E5" rx="11" ry="11" style="stroke:#181818;stroke-width:1;"/><path d="M390.8019,607.4456 L390.8019,605.2894 L398.1925,605.2894 L398.1925,607.4456 L395.7238,607.4456 L395.7238,615.5238 L398.1925,615.5238 L398.1925,617.68 L390.8019,617.68 L390.8019,615.5238 L393.2706,615.5238 L393.2706,607.4456 L390.8019,607.4456 Z " fill="#000000"/><text fill="#000000" font-family="sans-serif" font-size="14" font-style="italic" lengthAdjust="spacing" textLength="138.2355" x="408.88" y="617.112">IDevolucionRepository</text><line style="stroke:#181818;stroke-width:0.5;" x1="380.88" x2="549.1155" y1="627.68" y2="627.68"/><line style="stroke:#181818;stroke-width:0.5;" x1="380.88" x2="549.1155" y1="635.68" y2="635.68"/></g><!--reverse link IDS to DSI--><g class="link" data-entity-1="ent0004" data-entity-2="ent0005" data-link-type="extension" data-source-line="18" id="lnk7"><path codeLine="18" d="M230,332.58 C230,350.36 230,356.42 230,374.18" fill="none" id="IDS-backto-DSI" style="stroke:#181818;stroke-width:1;stroke-dasharray:7,7;"/><polygon fill="none" points="230,314.58,224,332.58,236,332.58,230,314.58" style="stroke:#181818;stroke-width:1;stroke-linejoin:miter;stroke-miterlimit:10;"/></g><!--link DC to IDS--><g class="link" data-entity-1="ent0002" data-entity-2="ent0004" data-link-type="dependency" data-source-line="38" id="lnk11"><path codeLine="38" d="M230,188.81 C230,216.4 230,241.02 230,261.11" fill="none" id="DC-to-IDS" style="stroke:#181818;stroke-width:1;"/><polygon fill="#181818" points="230,266.11,234,257.11,230,261.11,226,257.11,230,266.11" style="stroke:#181818;stroke-width:1;stroke-linejoin:miter;stroke-miterlimit:10;"/></g><!--link DSI to IDR--><g class="link" data-entity-1="ent0005" data-entity-2="ent0010" data-link-type="dependency" data-source-line="39" id="lnk12"><path codeLine="39" d="M321.47,398.02 C365.24,398.02 408.24,398.02 408.24,398.02 C408.24,398.02 408.24,533.09 408.24,590.54" fill="none" id="DSI-to-IDR" style="stroke:#181818;stroke-width:1;"/><polygon fill="#181818" points="408.24,595.54,412.24,586.54,408.24,590.54,404.24,586.54,408.24,595.54" style="stroke:#181818;stroke-width:1;stroke-linejoin:miter;stroke-miterlimit:10;"/></g><!--link DSI to DE--><g class="link" data-entity-1="ent0005" data-entity-2="ent0009" data-link-type="dependency" data-source-line="40" id="lnk13"><path codeLine="40" d="M230,422.45 C230,441.78 230,465.47 230,495.02" fill="none" id="DSI-to-DE" style="stroke:#181818;stroke-width:1;"/><polygon fill="#181818" points="230,500.02,234,491.02,230,495.02,226,491.02,230,500.02" style="stroke:#181818;stroke-width:1;stroke-linejoin:miter;stroke-miterlimit:10;"/></g><?plantuml-src ZLFRQjj047tNLmpgYqjn7XiSIY1O5WWA3P9_OBeUsqjME-hioiLjy-yTNNmHZMbUnEwSCvSzPnHUh6zGi8O6pGlkg8f7Ho1a8lgTeoIS2M6F6_vf_GwswC8rugodU6m8MEAUasGi1UcpK20VqLZsANp8ysoHBU1t0c0SXW1fHWTsRGSlsKTXvqXIm03PigS1V78sH9GBaSBi8pp0Lmr_kKHB2WtxGDdws-EG9xHJYg0KFkeCdADpTiCpeHyjXTZLU3Fzb6se2OgWhFoJgz6GVsUgqLlhTEPdbhMe52hPB8w7_xOTXrPavBodwsloUgNwK-EiEMc-NEJt-NqlfbKXPAilWRIuLAf83jPGhtgHLMzvCrAAkd63ELMXDFt2NTlS_NdiywudoBYstd9lUVvvUSFobJzqdAxWQdHxRZSFK4LHfOQxRsiIFiaunMgEzi3J67yFEYmEYpA5L4DTu6dibneykZi5DcHiw7MkRRS-D8MtPFOuNInTIJReCeoqjZLTySfkbxg9pfrkCq-k_yjHVMzPM5B3mKQMu-XYsRcXlz1yFdZJMJMSo_CvM_q5?></g></svg>